<?xml version="1.0" encoding="UTF-8"?>
<svg version="1.1" viewBox="0 0 120 66" xmlns="http://www.w3.org/2000/svg">
<g fill="none">
<path transform="translate(37.191)" d="m18.865 22.099c-0.6369 0.294-1.2249 0.49-1.6659 0.441-0.343-0.049-0.784-0.147-1.274-0.392-2.744-1.274-5.537-3.43-8.428-6.4191-0.48999-0.539-0.78399-0.882-0.88199-1.029 5.88-3.381 10.192-6.664 12.397-9.212 0.049-0.098 0.098-0.147 0.098-0.294s-0.49-0.34301-1.4699-0.78401c-0.882-0.392-1.519-0.686-1.96-0.735-0.147 0-0.245 0-0.245 0.049s0 0.098 0.049 0.147 0.196 0.392 0.196 0.392c0 0.196 0.784 1.029-5.341 5.586-2.009 1.47-4.018 2.793-5.6839 3.822 0.049-3.822 0.245-7.84 0.637-12.152 0.049-0.34301-0.245-0.58801-0.88199-0.78401-0.098-0.049-0.686-0.147-1.813-0.392-0.88199-0.196-1.078-0.294-1.225-0.294-0.343-0.049-0.83299-0.098-0.88199 0.049 0 0.098001 0.392 0.245 0.49 0.441 0.097997 0.196 0.097997 0.441 0.097997 0.49 0.392 6.419 0.294 11.27 0.294 14.455-0.93099 0.441-1.372 0.686-1.372 0.833 0 0.196 0.147 0.343 0.44099 0.49l0.245 0.049c0.294-0.049 0.49-0.0489 0.637-0.098h0.147c0.049 2.3031 0 4.0671-0.098 5.3901-0.049 0.539 0.245 1.078 0.83299 1.617 0.637 0.49 1.47 0.833 2.499 0.931 0.784 0.098 1.225 0 1.225-0.294 0-0.098-0.098-0.245-0.245-0.441-0.19599-0.196-0.29399-0.343-0.24499-0.392-0.294-0.539-0.49-1.176-0.539-1.862-0.098-2.303-0.147-4.067-0.147-5.3411h0.245c0.53899 0.637 0.97999 1.1271 1.274 1.4701 2.107 2.254 4.165 3.92 6.223 4.998 1.323 0.637 2.401 1.029 3.332 1.127 1.421 0.147 2.6949-0.196 3.7239-0.931 0 0 0.196-0.098-0.147-0.539s-0.539-0.392-0.539-0.392z" fill="#000"/>
<path transform="translate(57.783 8.5261)" d="m27.624 15.337c-0.441 0.098-0.98 0-0.98 0-1.617-0.49-2.254-2.401-1.96-5.782 0.049-0.88201 0.294-1.862 0.588-2.94 0.294-1.029 0.441-1.617 0.441-1.715 0.049-0.343-0.098-0.588-0.441-0.735-0.049-0.049-0.49-0.098-1.225-0.294-0.7839-0.147-1.1269-0.245-1.0779-0.245-0.294 0-0.539 0.098-0.637 0.392l-3.626 7.399c0.049-0.637 0.049-1.225 0.098-1.715l0.147-1.666c0.098-1.176 0.245-2.303 0.441-3.381 0.196-0.833 0.245-1.225 0.245-1.127 0.049-0.294-0.196-0.588-0.735-0.784-0.147-0.049-0.637-0.196-1.47-0.392-0.343-0.098-0.539-0.147-0.539-0.147-0.441-0.049-0.784 0.196-1.029 0.735l-3.9689 8.134 0.5389-9.163c0.049-0.49-0.049-0.833-0.196-1.078-0.1959-0.196-0.6859-0.392-1.4699-0.539-0.98003-0.196-1.47-0.294-1.519-0.294l-0.147 0.048999c0.098 0.294 0.147 0.49 0.196 0.637 0 0.49-0.04899 1.078-0.09799 1.813-0.098 1.274-0.24501 2.45-0.441 3.528-0.686 3.038-1.47 5.096-2.254 6.468l-0.147 0.294c-0.147 0.245-0.392 0.588-0.637 0.931l-0.049 0.049-0.049 0.049v0.049c0 0.049-0.049 0.049-0.049 0.098-0.098 0.098-0.147 0.196-0.245 0.245-0.049 0.049-0.098 0.049-0.147 0.098-0.19599 0.196-0.44099 0.294-0.63698 0.294-0.245-0.049-0.49-0.196-0.686-0.441-0.049-0.098-0.098-0.147-0.147-0.245-0.686-1.176-0.833-3.332-0.833-3.332-0.09799-2.45 0.49-4.9 0.735-5.88 0.049-0.294 0.147-0.49 0.147-0.49v-0.049c0-0.343-0.392-0.588-1.225-0.735-0.83299-0.196-1.274-0.245-1.372-0.245s-0.196 0.049-0.245 0.196c0 0-0.147 0.343-0.196 0.441-0.048999 0.098-0.049001 0.245-0.147 0.441-0.097999 0.392-0.196 0.637-0.294 1.323-0.098 0.637-0.196 1.421-0.245 2.254-0.049 0.441-0.049 0.88201 0 1.323 0 0.441 0.049006 0.93097 0.098005 1.372 0.048999 0.441 0.147 0.931 0.245 1.372s0.294 0.931 0.49 1.323c0.097999 0.196 0.24499 0.441 0.34299 0.637 0.147 0.196 0.245 0.392 0.392 0.588 0.294 0.343 0.63699 0.686 0.97999 0.882 0.098 0.049 0.196 0.098 0.245 0.147 0.098 0.049 0.196 0.098 0.245 0.147s0.09799 0.049 0.14699 0.049c0.392 0.147 0.784 0.196 1.078 0.147 0.294 0 0.58799-0.049 0.78399-0.147 0.098-0.049 0.19599-0.049 0.24499-0.098 0.882-0.49 1.47-1.372 1.666-1.617 0.19599-0.294 0.44099-0.637 0.58799-0.98 0.245-0.49 0.48999-0.931 0.68599-1.372 0.098-0.147 0.196-0.392 0.294-0.735s0.19599-0.588 0.29399-0.88197c0.049-0.049 0.04901-0.147 0.04901-0.196 0.14699-0.441 0.29399-0.931 0.48999-2.009l-0.245 6.076c0 0.539 0.686 1.029 2.058 1.421 0.343 0.098 0.637 0.147 0.784 0.196 0.2939 0 0.4409-0.049 0.4899-0.196 0-0.147 0-0.392-0.049-0.686s-0.0979-0.539-0.0489-0.686c0-0.245 0.4899-1.274 1.3229-3.136l2.401-4.9c-0.049 5.537-0.049 8.428 0.098 8.673 0.147 0.294 0.441 0.539 1.029 0.784 0.539 0.245 1.029 0.392 1.519 0.392 0.245 0 0.392-0.049 0.441-0.196-0.147-0.392-0.245-0.637-0.245-0.833 0.147-1.47 1.274-4.116 3.381-8.036-0.147 0.735-0.294 1.519-0.343 2.401-0.147 1.617 0 2.989 0.441 4.165 0.735 1.813 2.1559 2.793 4.2139 2.94 0.392 0.049 0.686 0 0.833 0 0.196-0.049 0.588-0.147 0.588-0.441-0.098-0.343-0.294-0.441-0.441-0.392z" fill="#000"/>
<path transform="translate(59.266 6.2229)" d="m3.0615 3.626l0.29399-1.274c0.098-0.49 0.098-0.83301-0.04899-1.078-0.147-0.245-0.588-0.49-1.274-0.735-0.88199-0.343-1.372-0.539-1.421-0.539l-0.147 0.048999c0.048999 0.294 0.048998 0.49 0.097997 0.637-0.097999 0.49-0.196 1.078-0.392 1.764-0.049 0.196-0.098001 0.343-0.147 0.539 0 0-0.147 0.245 0.294 0.49 1.078 0.539 1.862 0.686 2.548 0.784 0 0 0.147 0.049 0.147-0.147 0.049-0.196 1e-5 -0.245 0.04901-0.49z" fill="#000"/>
<g class="lines">
<path transform="translate(0 14.357)" d="m120 51.597h-120v-51.597h27.342c0.735 0 1.372 0.637 1.372 1.372 0 0.73501-0.588 1.372-1.372 1.372h-24.598v46.109h114.51v-46.109h-24.598c-0.735 0-1.372-0.637-1.372-1.372 0-0.735 0.637-1.372 1.372-1.372h27.342v51.597z" fill="#000"/>
</g>
<path transform="translate(30.331 35.28)" d="m4.704 0.637c-0.049 0.098001-0.147 0.196-0.245 0.294-0.098 0.097999-0.19599 0.196-0.29399 0.29401-0.098 0.098-0.196 0.14699-0.343 0.19599s-0.245 0.09801-0.441 0.09801-0.392-0.04901-0.53899-0.09801c-0.147-0.049-0.343-0.147-0.49-0.245s-0.343-0.147-0.53899-0.245c-0.196-0.049-0.392-0.097998-0.637-0.097998-0.245 0-0.392 0.049-0.539 0.245-0.147 0.147-0.245 0.294-0.294 0.49l-0.343-0.637c0.049-0.098 0.097996-0.196 0.196-0.294 0.097999-0.098 0.147-0.196 0.245-0.294s0.196-0.147 0.343-0.196c0.147-0.049 0.294-0.097999 0.441-0.097999 0.196 0 0.392 0.048999 0.588 0.097999 0.19599 0.049 0.39199 0.147 0.58799 0.245 0.196 0.098001 0.343 0.147 0.48999 0.245 0.147 0.049 0.294 0.098003 0.49 0.098003s0.392-0.049 0.49-0.245c0.147-0.147 0.245-0.294 0.39199-0.49l0.441 0.637z" fill="#000"/>
<path transform="translate(38.661 31.409)" d="m4.018 7.056l-2.94-6.174v5.341c0 0.098 0.049 0.196 0.098 0.245s0.098 0.098 0.147 0.098 0.098 0.049 0.147 0.098 0.098 0.049 0.098 0.147v0.245h-1.568v-0.245c0-0.049 0.048998-0.098 0.097998-0.147 0.049-0.049 0.098001-0.049 0.147-0.098 0.049 0 0.097997-0.049 0.147-0.098s0.098001-0.147 0.098001-0.245v-5.439c0-0.098-0.049002-0.196-0.049002-0.245-0.049-0.049001-0.097997-0.097999-0.147-0.097999-0.048999 0-0.098-0.049003-0.147-0.049003-0.049 0-0.048999-0.048998-0.048999-0.147v-0.245h1.862l2.401 4.998v-4.214c0-0.098-0.049-0.196-0.098-0.245-0.049-0.049001-0.098-0.097999-0.147-0.097999s-0.09799-0.049003-0.14699-0.049003-0.098-0.048998-0.098-0.147v-0.245h1.568v0.245c0 0.098001-0.049 0.097999-0.098 0.147-0.049 0-0.098 0.049003-0.147 0.049003s-0.09799 0.048998-0.19599 0.097999c-0.049 0.049-0.098 0.147-0.098 0.245v6.223h-0.88199v0.049z" fill="#000"/>
<path transform="translate(46.746 31.164)" d="m3.283 7.301v-0.294c0-0.049 1e-5 -0.098 0.049-0.147 0.049 0 0.098-0.049 0.147-0.049s0.098 0 0.147-0.049c0.049 0 0.049-0.049 0.049-0.147 0-0.049 0-0.147-0.049-0.245s-0.049-0.245-0.098-0.392-0.098-0.294-0.147-0.44101c-0.049-0.147-0.098-0.29399-0.098-0.44099h-1.813c-0.098 0.294-0.147 0.539-0.196 0.784s-0.098 0.441-0.098 0.588c0 0.098 0 0.147 0.049 0.196s0.098 0.049 0.147 0.049 0.09799 0.049 0.14699 0.049 0.04901 0.049 0.04901 0.147v0.294h-1.568v-0.294c0-0.049-4.4853e-6 -0.098 0.048995-0.147 0.049 0 0.098-0.049 0.147-0.049 0.048999 0 0.098004-0.049 0.196-0.098 0.048999-0.049 0.097993-0.098 0.14699-0.196l1.568-5.537c0-0.098-0.04901-0.196-0.09801-0.294s-0.04899-0.196-0.04899-0.245 0.04899-0.097998 0.19599-0.147c0.245-0.098 0.441-0.147 0.49-0.147 0.098 0 0.147-0.048999 0.147-0.048999 0.049 0 0.09799-7.4768e-7 0.09799 0.048999 0 0.049 0.04901 0.048999 0.04901 0.097999l1.813 6.223c0.049 0.098 0.098 0.196 0.147 0.245s0.098 0.098 0.196 0.098c0.049 0 0.098 0.049 0.147 0.049s0.049 0.049 0.049 0.147v0.294h-2.009v0.098zm-0.147-2.646l-0.73499-2.891-0.735 2.891h1.47z" fill="#000"/>
<path transform="translate(54.194 31.262)" d="m4.116 0.147c0.147 0 0.24501 1e-6 0.34301-0.048999 0.09799-0.049 0.19599-0.049002 0.29399-0.098003v2.009h-0.29399c-0.098 0-0.14701-0.04899-0.19601-0.09799s-0.049-0.147-0.09799-0.245c0-0.09801-0.049-0.196-0.098-0.343-0.049-0.098-0.049-0.24501-0.098-0.34301-0.049-0.098-0.147-0.196-0.245-0.245-0.098-0.049-0.245-0.097998-0.392-0.097998h-0.39199v5.782c0 0.098 0 0.196 0.049 0.245s0.09799 0.098 0.14699 0.098 0.098 0.049 0.147 0.049 0.049 0.049 0.049 0.147v0.245h-2.009v-0.245c0-0.049 0-0.098 0.049-0.147 0.049 0 0.098-0.049 0.147-0.049s0.09799-0.049 0.14699-0.098 0.04901-0.147 0.04901-0.245v-5.782h-0.392c-0.147 0-0.294 0.048998-0.392 0.097998-0.097999 0.049001-0.147 0.147-0.196 0.245-0.049 0.097998-0.097998 0.19601-0.097998 0.34301-0.048999 0.098-0.048998 0.24499-0.097998 0.343 0 0.098-0.049005 0.196-0.098005 0.245-0.048999 0.049-0.097996 0.09799-0.196 0.09799h-0.245v-2.009c0.097999 0.049 0.196 0.049002 0.294 0.098003 0.097999 0.049 0.196 0.048999 0.343 0.048999h3.479z" fill="#000"/>
<path transform="translate(61.985 31.409)" d="m2.058 7.4768e-7v0.245c0 0.098001-1e-5 0.097999-0.04901 0.147-0.049 0-0.098 0.049003-0.147 0.049003s-0.098 0.048998-0.147 0.097999c-0.049 0.049-0.04899 0.147-0.04899 0.245v4.557c0 0.392 0.098 0.735 0.34299 0.98 0.245 0.245 0.588 0.392 1.029 0.392 0.196 0 0.39199-0.049 0.53899-0.098s0.294-0.147 0.441-0.245 0.24499-0.245 0.29399-0.441 0.098-0.392 0.098-0.588v-4.508c0-0.098-0.049-0.196-0.098-0.245s-0.09799-0.097999-0.19599-0.097999c-0.049 0-0.14701-0.048999-0.19601-0.048999s-0.09799-0.049002-0.09799-0.147v-0.245h1.617v0.245c0 0.098-0.04899 0.098002-0.09799 0.147-0.049 0-0.09801 0.048999-0.19601 0.048999-0.049 0-0.14699 0.048999-0.19599 0.097999s-0.098 0.147-0.098 0.245v4.459c0 0.24501-0.049 0.53901-0.098 0.73501-0.098 0.245-0.196 0.441-0.39199 0.588-0.147 0.196-0.39201 0.294-0.686 0.392-0.294 0.098-0.63699 0.147-1.029 0.147-0.343 0-0.637-0.049-0.931-0.098-0.29399-0.098-0.53899-0.196-0.73499-0.392-0.196-0.147-0.34299-0.392-0.44099-0.637-0.098-0.245-0.147-0.539-0.147-0.882v-4.361c0-0.098 5e-6 -0.196-0.048995-0.245-0.048999-0.049001-0.098001-0.097999-0.147-0.097999-0.049 0-0.098001-0.049003-0.147-0.049003s-0.049003-0.048998-0.049003-0.147v-0.245h2.058z" fill="#000"/>
<path transform="translate(70.706 31.409)" d="m3.675 7.056l-1.47-3.038c-0.098-0.196-0.196-0.294-0.245-0.343-0.098-0.049-0.19599-0.098-0.34299-0.098v2.646c0 0.098 0 0.196 0.049 0.245s0.09799 0.098 0.14699 0.098 0.098 0.049 0.147 0.049 0.049 0.049 0.049 0.147v0.245h-2.009v-0.245c0-0.049 2.9885e-6 -0.098 0.049003-0.147 0.049 0 0.098001-0.049 0.147-0.049 0.049 0 0.097994-0.049 0.14699-0.098 0.049-0.049 0.049003-0.147 0.049003-0.245v-5.439c0-0.098-3e-6 -0.196-0.049003-0.245-0.048999-0.049001-0.097993-0.097999-0.14699-0.097999-0.048999 0-0.098-0.049003-0.147-0.049003-0.049 0-0.049003-0.048998-0.049003-0.147v-0.245h2.303c0.68599 0 1.225 0.147 1.617 0.441 0.39199 0.294 0.58799 0.735 0.58799 1.323 0 0.196-0.049 0.441-0.098 0.637s-0.14699 0.392-0.29399 0.539-0.343 0.294-0.539 0.392c-0.245 0.098-0.49 0.147-0.784 0.147 0.147 0.049 0.294 0.098 0.392 0.196s0.196 0.245 0.294 0.392l1.127 2.205c0.049 0.098 0.098 0.196 0.196 0.245s0.147 0.049 0.196 0.098c0.049 0 0.098 0.049 0.147 0.049s0.049 0.049 0.049 0.147v0.294h-1.519v-0.049zm-2.058-3.871h0.34299c0.539 0 0.88199-0.098 1.078-0.343s0.294-0.588 0.294-1.029c0-0.441-0.098-0.784-0.294-1.029-0.196-0.245-0.58799-0.343-1.078-0.343h-0.34299v2.744z" fill="#000"/>
<path transform="translate(78.252 31.164)" d="m3.283 7.301v-0.294c0-0.049 0-0.098 0.049-0.147 0.049 0 0.098-0.049 0.147-0.049s0.098 0 0.147-0.049c0.049 0 0.049-0.049 0.049-0.147 0-0.049 0-0.147-0.049-0.245s-0.049-0.245-0.098-0.392-0.098-0.294-0.147-0.44101c-0.049-0.147-0.098-0.29399-0.098-0.44099h-1.813c-0.098 0.294-0.147 0.539-0.196 0.784s-0.098 0.441-0.098 0.588c0 0.098 0 0.147 0.049 0.196s0.098 0.049 0.147 0.049 0.098 0.049 0.147 0.049 0.049 0.049 0.049 0.147v0.294h-1.568v-0.294c0-0.049-4.4875e-6 -0.098 0.048995-0.147 0.049 0 0.098001-0.049 0.147-0.049 0.049 0 0.098001-0.049 0.147-0.098 0.048999-0.049 0.098-0.098 0.147-0.196l1.568-5.537c0-0.098-0.04899-0.196-0.09799-0.294s-0.04901-0.196-0.04901-0.245 0.049-0.097998 0.196-0.147c0.245-0.098 0.441-0.147 0.49-0.147 0.09799 0 0.147-0.048999 0.147-0.048999 0.049 0 0.09799-7.4768e-7 0.09799 0.048999 0 0.049 0.04901 0.048999 0.04901 0.097999l1.813 6.223c0.049 0.098 0.098 0.196 0.147 0.245s0.098 0.098 0.147 0.098 0.098 0.049 0.147 0.049 0.04899 0.049 0.04899 0.147v0.294h-1.911v0.098zm-0.09799-2.646l-0.735-2.891-0.73499 2.891h1.47z" fill="#000"/>
<path transform="translate(86.631 35.28)" d="m4.704 0.637c-0.049 0.098001-0.147 0.196-0.245 0.294-0.09799 0.097999-0.196 0.196-0.294 0.29401-0.09799 0.098-0.19599 0.14699-0.34299 0.19599s-0.245 0.09801-0.44099 0.09801c-0.196 0-0.392-0.04901-0.539-0.09801s-0.343-0.147-0.49-0.245-0.343-0.147-0.539-0.245c-0.196-0.049-0.39199-0.097998-0.63699-0.097998-0.245 0-0.392 0.049-0.539 0.245-0.147 0.147-0.245 0.294-0.294 0.49l-0.343-0.637c0.049-0.098 0.098004-0.196 0.196-0.294 0.098-0.098 0.147-0.196 0.245-0.294 0.098-0.098 0.196-0.147 0.343-0.196 0.147-0.049 0.294-0.097999 0.441-0.097999 0.196 0 0.39199 0.048999 0.58799 0.097999 0.196 0.049 0.392 0.147 0.588 0.245 0.196 0.098001 0.343 0.147 0.49 0.245 0.147 0.049 0.294 0.098003 0.49 0.098003 0.19599 0 0.39199-0.049 0.48999-0.245 0.147-0.147 0.24499-0.294 0.39199-0.49l0.441 0.637z" fill="#000"/>
</g>
</svg>
