<svg width="120" height="66" viewBox="0 0 120 66" version="1.1" xmlns="http://www.w3.org/2000/svg" xmlns:xlink="http://www.w3.org/1999/xlink">
<g id="Canvas" fill="none">
<g id="Group">
<g id="Vector">
<path d="M 18.8648 22.0991C 18.2279 22.3931 17.6399 22.5891 17.1989 22.5401C 16.8559 22.4911 16.4149 22.3931 15.9249 22.1481C 13.1809 20.8741 10.3879 18.7181 7.49694 15.729C 7.00695 15.19 6.71295 14.847 6.61495 14.7C 12.4949 11.319 16.8069 8.03602 19.0118 5.48802C 19.0608 5.39002 19.1098 5.34102 19.1098 5.19402C 19.1098 5.04702 18.6198 4.85101 17.6399 4.41001C 16.7579 4.01801 16.1209 3.72401 15.6799 3.67501C 15.5329 3.67501 15.4349 3.67501 15.4349 3.72401C 15.4349 3.77301 15.4349 3.82201 15.4839 3.87101C 15.5329 3.92001 15.6799 4.26301 15.6799 4.26301C 15.6799 4.45901 16.4639 5.29202 10.3389 9.84903C 8.32993 11.319 6.32095 12.642 4.65496 13.671C 4.70396 9.84903 4.89996 5.83102 5.29196 1.51901C 5.34096 1.176 5.04696 0.931002 4.40997 0.735002C 4.31197 0.686002 3.72397 0.588002 2.59698 0.343001C 1.71499 0.147 1.51899 0.049 1.37199 0.049C 1.02899 -1.86191e-07 0.538997 -0.0490001 0.489997 0.0980003C 0.489997 0.196001 0.881994 0.343002 0.979993 0.539002C 1.07799 0.735003 1.07799 0.980004 1.07799 1.029C 1.46999 7.44802 1.37199 12.299 1.37199 15.484C 0.440996 15.925 1.49535e-06 16.17 1.49535e-06 16.317C 1.49535e-06 16.513 0.146997 16.66 0.440995 16.807L 0.685993 16.856C 0.97999 16.807 1.17599 16.8071 1.32299 16.758C 1.32299 16.758 1.37199 16.758 1.46999 16.758C 1.51899 19.0611 1.46999 20.8251 1.37199 22.1481C 1.32299 22.6871 1.61699 23.2261 2.20498 23.7651C 2.84198 24.2551 3.67497 24.5981 4.70396 24.6961C 5.48796 24.7941 5.92895 24.6961 5.92895 24.4021C 5.92895 24.3041 5.83095 24.1571 5.68395 23.9611C 5.48796 23.7651 5.38996 23.6181 5.43896 23.5691C 5.14496 23.0301 4.94896 22.3931 4.89996 21.7071C 4.80196 19.4041 4.75296 17.6401 4.75296 16.366C 4.89996 16.366 4.94896 16.366 4.99796 16.366C 5.53695 17.003 5.97795 17.4931 6.27195 17.8361C 8.37893 20.0901 10.4369 21.7561 12.4949 22.8341C 13.8179 23.4711 14.8959 23.8631 15.8269 23.9611C 17.2479 24.1081 18.5218 23.7651 19.5508 23.0301C 19.5508 23.0301 19.7468 22.9321 19.4038 22.4911C 19.0608 22.0501 18.8648 22.0991 18.8648 22.0991Z" transform="translate(37.1907 0)" fill="white"></path>
</g>
<g id="Vector_2">
<path d="M 27.6235 15.337C 27.1825 15.435 26.6435 15.337 26.6435 15.337C 25.0265 14.847 24.3895 12.936 24.6835 9.55503C 24.7325 8.67302 24.9775 7.69302 25.2715 6.61502C 25.5655 5.58602 25.7125 4.99802 25.7125 4.90001C 25.7615 4.55701 25.6145 4.31201 25.2715 4.16501C 25.2225 4.11601 24.7815 4.06701 24.0465 3.87101C 23.2626 3.72401 22.9196 3.62601 22.9686 3.62601C 22.6746 3.62601 22.4296 3.72401 22.3316 4.01801L 18.7056 11.417C 18.7546 10.78 18.7546 10.192 18.8036 9.70203L 18.9506 8.03602C 19.0486 6.86002 19.1956 5.73302 19.3916 4.65501C 19.5876 3.82201 19.6366 3.43001 19.6366 3.52801C 19.6856 3.23401 19.4406 2.94001 18.9016 2.74401C 18.7546 2.69501 18.2646 2.54801 17.4316 2.35201C 17.0886 2.25401 16.8926 2.20501 16.8926 2.20501C 16.4516 2.15601 16.1086 2.40101 15.8636 2.94001L 11.8947 11.074L 12.4336 1.911C 12.4826 1.421 12.3846 1.078 12.2376 0.833003C 12.0417 0.637003 11.5517 0.441001 10.7677 0.294001C 9.78767 0.0979999 9.29767 3.73841e-07 9.24867 3.73841e-07L 9.10167 0.0489998C 9.19967 0.343001 9.24867 0.539001 9.29767 0.686001C 9.29767 1.176 9.24868 1.764 9.19968 2.49901C 9.10168 3.77301 8.95467 4.94901 8.75868 6.02702C 8.07268 9.06503 7.28869 11.123 6.5047 12.495C 6.4557 12.593 6.4067 12.691 6.3577 12.789C 6.2107 13.034 5.9657 13.377 5.7207 13.72C 5.7207 13.72 5.7207 13.72 5.6717 13.769C 5.6717 13.769 5.6717 13.769 5.6227 13.818C 5.6227 13.818 5.6227 13.818 5.6227 13.867C 5.6227 13.916 5.5737 13.916 5.5737 13.965C 5.4757 14.063 5.4267 14.161 5.3287 14.21C 5.2797 14.259 5.2307 14.259 5.1817 14.308C 4.98571 14.504 4.74071 14.602 4.54472 14.602C 4.29972 14.553 4.05472 14.406 3.85872 14.161C 3.80972 14.063 3.76072 14.014 3.71172 13.916C 3.02572 12.74 2.87872 10.584 2.87872 10.584C 2.78073 8.13403 3.36872 5.68402 3.61372 4.70401C 3.66272 4.41001 3.76072 4.21401 3.76072 4.21401L 3.76072 4.16501C 3.76072 3.82201 3.36872 3.57701 2.53573 3.43001C 1.70274 3.23401 1.26174 3.18501 1.16374 3.18501C 1.06574 3.18501 0.96774 3.23401 0.918741 3.38101C 0.918741 3.38101 0.771745 3.72401 0.722745 3.82201C 0.673746 3.92001 0.673744 4.06701 0.575745 4.26301C 0.477746 4.65501 0.379744 4.90001 0.281745 5.58602C 0.183745 6.22302 0.0857463 7.00702 0.0367467 7.84002C -0.0122529 8.28102 -0.0122529 8.72203 0.0367467 9.16303C 0.0367467 9.60403 0.0857523 10.094 0.134752 10.535C 0.183751 10.976 0.281751 11.466 0.37975 11.907C 0.477749 12.348 0.673747 12.838 0.869746 13.23C 0.967745 13.426 1.11474 13.671 1.21274 13.867C 1.35974 14.063 1.45774 14.259 1.60474 14.455C 1.89874 14.798 2.24173 15.141 2.58473 15.337C 2.68273 15.386 2.78073 15.435 2.82973 15.484C 2.92773 15.533 3.02573 15.582 3.07473 15.631C 3.12373 15.68 3.17272 15.68 3.22172 15.68C 3.61372 15.827 4.00572 15.876 4.29972 15.827C 4.59372 15.827 4.88771 15.778 5.08371 15.68C 5.18171 15.631 5.2797 15.631 5.3287 15.582C 6.2107 15.092 6.7987 14.21 6.9947 13.965C 7.19069 13.671 7.43569 13.328 7.58269 12.985C 7.82769 12.495 8.07268 12.054 8.26868 11.613C 8.36668 11.466 8.46468 11.221 8.56268 10.878C 8.66068 10.535 8.75867 10.29 8.85667 9.99603C 8.90567 9.94703 8.90568 9.84903 8.90568 9.80003C 9.05267 9.35903 9.19967 8.86903 9.39567 7.79102L 9.15067 13.867C 9.15067 14.406 9.83667 14.896 11.2087 15.288C 11.5517 15.386 11.8457 15.435 11.9927 15.484C 12.2866 15.484 12.4336 15.435 12.4826 15.288C 12.4826 15.141 12.4826 14.896 12.4336 14.602C 12.3846 14.308 12.3357 14.063 12.3847 13.916C 12.3847 13.671 12.8746 12.642 13.7076 10.78L 16.1086 5.88002C 16.0596 11.417 16.0596 14.308 16.2066 14.553C 16.3536 14.847 16.6476 15.092 17.2356 15.337C 17.7746 15.582 18.2646 15.729 18.7546 15.729C 18.9996 15.729 19.1466 15.68 19.1956 15.533C 19.0486 15.141 18.9506 14.896 18.9506 14.7C 19.0976 13.23 20.2246 10.584 22.3316 6.66402C 22.1846 7.39902 22.0376 8.18302 21.9886 9.06503C 21.8416 10.682 21.9886 12.054 22.4296 13.23C 23.1646 15.043 24.5855 16.023 26.6435 16.17C 27.0355 16.219 27.3295 16.17 27.4765 16.17C 27.6725 16.121 28.0645 16.023 28.0645 15.729C 27.9665 15.386 27.7705 15.288 27.6235 15.337Z" transform="translate(57.7827 8.52612)" fill="white"></path>
</g>
<g id="Vector_3">
<path d="M 3.0615 3.62601L 3.35549 2.35201C 3.45349 1.86201 3.45349 1.519 3.3065 1.274C 3.1595 1.029 2.7185 0.784002 2.0325 0.539001C 1.15051 0.196 0.660518 0 0.611518 0L 0.464518 0.0489994C 0.513517 0.343 0.513516 0.539002 0.562515 0.686003C 0.464516 1.176 0.366515 1.76401 0.170517 2.45001C 0.121517 2.64601 0.0725164 2.79301 0.0235168 2.98901C 0.0235168 2.98901 -0.123479 3.23401 0.317517 3.47901C 1.39551 4.01801 2.1795 4.16501 2.86549 4.26301C 2.86549 4.26301 3.01249 4.31201 3.01249 4.11601C 3.06149 3.92001 3.0125 3.87101 3.0615 3.62601Z" transform="translate(59.2661 6.2229)" fill="white"></path>
</g>
<g id="Vector_4" class="lines">
<path d="M 120 51.5971L 7.47674e-07 51.5971L 7.47674e-07 -7.47683e-07L 27.3418 -7.47683e-07C 28.0768 -7.47683e-07 28.7138 0.637003 28.7138 1.372C 28.7138 2.10701 28.1258 2.74401 27.3418 2.74401L 2.74398 2.74401L 2.74398 48.8531L 117.256 48.8531L 117.256 2.74401L 92.6582 2.74401C 91.9232 2.74401 91.2862 2.10701 91.2862 1.372C 91.2862 0.637003 91.9232 -7.47683e-07 92.6582 -7.47683e-07L 120 -7.47683e-07L 120 51.5971Z" transform="translate(0 14.3569)" fill="white"></path>
</g>
<g id="Vector_5">
<path d="M 4.70396 0.637001C 4.65496 0.735002 4.55696 0.833001 4.45896 0.931001C 4.36096 1.029 4.26297 1.127 4.16497 1.22501C 4.06697 1.32301 3.96897 1.372 3.82197 1.421C 3.67497 1.47 3.57697 1.51901 3.38097 1.51901C 3.18497 1.51901 2.98897 1.47 2.84198 1.421C 2.69498 1.372 2.49898 1.274 2.35198 1.176C 2.20498 1.078 2.00898 1.029 1.81299 0.931001C 1.61699 0.882001 1.42099 0.833003 1.17599 0.833003C 0.930991 0.833003 0.783993 0.882003 0.636994 1.078C 0.489995 1.225 0.391997 1.372 0.342997 1.568L 1.49535e-06 0.931001C 0.0490011 0.833001 0.0979977 0.735002 0.195997 0.637001C 0.293996 0.539001 0.342996 0.441001 0.440995 0.343001C 0.538994 0.245001 0.636995 0.196 0.783994 0.147C 0.930993 0.0979995 1.07799 0.0490009 1.22499 0.0490009C 1.42099 0.0490009 1.61699 0.0979995 1.81299 0.147C 2.00898 0.196 2.20498 0.294 2.40098 0.392C 2.59698 0.490001 2.74398 0.539001 2.89097 0.637001C 3.03797 0.686001 3.18497 0.735004 3.38097 0.735004C 3.57697 0.735004 3.77297 0.686004 3.87097 0.490003C 4.01797 0.343003 4.11597 0.196002 4.26296 1.49537e-06L 4.70396 0.637001Z" transform="translate(30.3308 35.28)" fill="white"></path>
</g>
<g id="Vector_6">
<path d="M 4.01797 7.05602L 1.07799 0.882001L 1.07799 6.22302C 1.07799 6.32102 1.12699 6.41902 1.17599 6.46802C 1.22499 6.51702 1.27399 6.56602 1.32299 6.56602C 1.37199 6.56602 1.42099 6.61502 1.46999 6.66402C 1.51899 6.71302 1.56799 6.71302 1.56799 6.81102L 1.56799 7.05602L 1.49535e-06 7.05602L 1.49535e-06 6.81102C 1.49535e-06 6.76202 0.0489996 6.71302 0.0979992 6.66402C 0.146999 6.61502 0.196 6.61502 0.244999 6.56602C 0.293999 6.56602 0.342996 6.51702 0.391996 6.46802C 0.440996 6.41902 0.489997 6.32102 0.489997 6.22302L 0.489997 0.784002C 0.489997 0.686002 0.440995 0.588002 0.440995 0.539002C 0.391995 0.490001 0.342998 0.441003 0.293998 0.441003C 0.244999 0.441003 0.195998 0.392 0.146998 0.392C 0.0979984 0.392 0.0979992 0.343002 0.0979992 0.245001L 0.0979992 7.47683e-07L 1.95999 7.47683e-07L 4.36096 4.99801L 4.36096 0.784002C 4.36096 0.686002 4.31196 0.588002 4.26296 0.539002C 4.21396 0.490001 4.16496 0.441003 4.11596 0.441003C 4.06696 0.441003 4.01797 0.392 3.96897 0.392C 3.91997 0.392 3.87097 0.343002 3.87097 0.245001L 3.87097 7.47683e-07L 5.43895 7.47683e-07L 5.43895 0.245001C 5.43895 0.343002 5.38995 0.343 5.34095 0.392C 5.29195 0.392 5.24295 0.441003 5.19395 0.441003C 5.14495 0.441003 5.09596 0.490001 4.99796 0.539002C 4.94896 0.588002 4.89996 0.686002 4.89996 0.784002L 4.89996 7.00702L 4.01797 7.00702L 4.01797 7.05602Z" transform="translate(38.6606 31.4092)" fill="white"></path>
</g>
<g id="Vector_7">
<path d="M 3.28297 7.30102L 3.28297 7.00702C 3.28297 6.95802 3.28298 6.90902 3.33197 6.86002C 3.38097 6.86002 3.42997 6.81102 3.47897 6.81102C 3.52797 6.81102 3.57697 6.81102 3.62597 6.76202C 3.67497 6.76202 3.67497 6.71302 3.67497 6.61502C 3.67497 6.56602 3.67497 6.46802 3.62597 6.37002C 3.57697 6.27202 3.57697 6.12502 3.52797 5.97802C 3.47897 5.83102 3.42997 5.68402 3.38097 5.53701C 3.33197 5.39001 3.28297 5.24302 3.28297 5.09602L 1.46999 5.09602C 1.37199 5.39002 1.32299 5.63502 1.27399 5.88002C 1.22499 6.12502 1.17599 6.32102 1.17599 6.46802C 1.17599 6.56602 1.17599 6.61502 1.22499 6.66402C 1.27399 6.71302 1.32299 6.71302 1.37199 6.71302C 1.42099 6.71302 1.46998 6.76202 1.51898 6.76202C 1.56798 6.76202 1.56799 6.81102 1.56799 6.90902L 1.56799 7.20302L 1.49535e-06 7.20302L 1.49535e-06 6.90902C 1.49535e-06 6.86002 -2.98997e-06 6.81102 0.0489966 6.76202C 0.0979962 6.76202 0.146997 6.71302 0.195997 6.71302C 0.244996 6.71302 0.294001 6.66402 0.392 6.61502C 0.440999 6.56602 0.489993 6.51702 0.538993 6.41902L 2.10699 0.882001C 2.10699 0.784001 2.05798 0.686001 2.00898 0.588001C 1.95998 0.490001 1.95999 0.392 1.95999 0.343C 1.95999 0.294 2.00898 0.245002 2.15598 0.196002C 2.40098 0.0980018 2.59698 0.0490001 2.64598 0.0490001C 2.74398 0.0490001 2.79298 7.47683e-07 2.79298 7.47683e-07C 2.84198 7.47683e-07 2.89097 0 2.89097 0.0490001C 2.89097 0.0980003 2.93998 0.0979988 2.93998 0.146999L 4.75296 6.37002C 4.80196 6.46802 4.85096 6.56602 4.89996 6.61502C 4.94896 6.66402 4.99796 6.71302 5.09596 6.71302C 5.14496 6.71302 5.19396 6.76202 5.24296 6.76202C 5.29196 6.76202 5.29196 6.81102 5.29196 6.90902L 5.29196 7.20302L 3.28297 7.20302L 3.28297 7.30102ZM 3.13597 4.65501L 2.40098 1.76401L 1.66598 4.65501L 3.13597 4.65501Z" transform="translate(46.7456 31.1641)" fill="white"></path>
</g>
<g id="Vector_8">
<path d="M 4.11596 0.147001C 4.26296 0.147001 4.36097 0.147002 4.45897 0.0980018C 4.55696 0.0490016 4.65496 0.0489994 4.75296 -7.47683e-07L 4.75296 2.009L 4.45897 2.009C 4.36097 2.009 4.31196 1.96001 4.26296 1.91101C 4.21396 1.86201 4.21396 1.76401 4.16497 1.66601C 4.16497 1.568 4.11597 1.47001 4.06697 1.32301C 4.01797 1.22501 4.01797 1.078 3.96897 0.980002C 3.91997 0.882002 3.82197 0.784002 3.72397 0.735001C 3.62597 0.686001 3.47897 0.637003 3.33197 0.637003L 2.93998 0.637003L 2.93998 6.41902C 2.93998 6.51702 2.93998 6.61502 2.98898 6.66402C 3.03798 6.71302 3.08697 6.76202 3.13597 6.76202C 3.18497 6.76202 3.23397 6.81102 3.28297 6.81102C 3.33197 6.81102 3.33197 6.86002 3.33197 6.95802L 3.33197 7.20302L 1.32299 7.20302L 1.32299 6.95802C 1.32299 6.90902 1.32299 6.86002 1.37199 6.81102C 1.42099 6.81102 1.46999 6.76202 1.51899 6.76202C 1.56799 6.76202 1.61698 6.71302 1.66598 6.66402C 1.71498 6.61502 1.71499 6.51702 1.71499 6.41902L 1.71499 0.637003L 1.32299 0.637003C 1.17599 0.637003 1.02899 0.686001 0.930989 0.735001C 0.83299 0.784002 0.783993 0.882002 0.734994 0.980002C 0.685994 1.078 0.636996 1.17601 0.636996 1.32301C 0.587997 1.42101 0.587998 1.568 0.538998 1.66601C 0.538998 1.76401 0.489993 1.86201 0.440993 1.91101C 0.391994 1.96001 0.342997 2.009 0.244998 2.009L 0 2.009L 0 -7.47683e-07C 0.0979992 0.0489994 0.196001 0.0490016 0.294001 0.0980018C 0.392 0.147002 0.489997 0.147001 0.636996 0.147001L 4.11596 0.147001Z" transform="translate(54.1936 31.2622)" fill="white"></path>
</g>
<g id="Vector_9">
<path d="M 2.05799 7.47683e-07L 2.05799 0.245001C 2.05799 0.343002 2.05798 0.343 2.00898 0.392C 1.95998 0.392 1.91098 0.441003 1.86198 0.441003C 1.81298 0.441003 1.76398 0.490001 1.71498 0.539002C 1.66598 0.588002 1.66599 0.686002 1.66599 0.784002L 1.66599 5.34102C 1.66599 5.73302 1.76399 6.07602 2.00898 6.32102C 2.25398 6.56602 2.59698 6.71302 3.03798 6.71302C 3.23398 6.71302 3.42997 6.66402 3.57697 6.61502C 3.72397 6.56602 3.87097 6.46802 4.01797 6.37002C 4.16497 6.27202 4.26296 6.12502 4.31196 5.92902C 4.36096 5.73302 4.40996 5.53702 4.40996 5.34102L 4.40996 0.833002C 4.40996 0.735002 4.36096 0.637001 4.31196 0.588001C 4.26296 0.539001 4.21397 0.490002 4.11597 0.490002C 4.06697 0.490002 3.96896 0.441003 3.91996 0.441003C 3.87096 0.441003 3.82197 0.392001 3.82197 0.294001L 3.82197 0.0490001L 5.43895 0.0490001L 5.43895 0.294001C 5.43895 0.392001 5.38996 0.392003 5.34096 0.441003C 5.29196 0.441003 5.24295 0.490002 5.14495 0.490002C 5.09595 0.490002 4.99796 0.539001 4.94896 0.588001C 4.89996 0.637001 4.85096 0.735002 4.85096 0.833002L 4.85096 5.29201C 4.85096 5.53702 4.80196 5.83102 4.75296 6.02702C 4.65496 6.27202 4.55696 6.46802 4.36097 6.61502C 4.21397 6.81102 3.96896 6.90902 3.67497 7.00702C 3.38097 7.10502 3.03798 7.15402 2.64598 7.15402C 2.30298 7.15402 2.00898 7.10502 1.71498 7.05602C 1.42099 6.95802 1.17599 6.86002 0.979989 6.66402C 0.783991 6.51702 0.636995 6.27202 0.538996 6.02702C 0.440996 5.78202 0.391995 5.48802 0.391995 5.14502L 0.391995 0.784002C 0.391995 0.686002 0.392 0.588002 0.343 0.539002C 0.294001 0.490001 0.244999 0.441003 0.196 0.441003C 0.147 0.441003 0.0979992 0.392 0.0489996 0.392C 0 0.392 -2.9907e-06 0.343002 -2.9907e-06 0.245001L -2.9907e-06 7.47683e-07L 2.05799 7.47683e-07Z" transform="translate(61.9846 31.4092)" fill="white"></path>
</g>
<g id="Vector_10">
<path d="M 3.67497 7.05602L 2.20498 4.01801C 2.10698 3.82201 2.00898 3.72401 1.95998 3.67501C 1.86198 3.62601 1.76399 3.57701 1.61699 3.57701L 1.61699 6.22302C 1.61699 6.32102 1.61699 6.41902 1.66599 6.46802C 1.71499 6.51702 1.76398 6.56602 1.81298 6.56602C 1.86198 6.56602 1.91098 6.61502 1.95998 6.61502C 2.00898 6.61502 2.00898 6.66402 2.00898 6.76202L 2.00898 7.00702L -1.49535e-06 7.00702L -1.49535e-06 6.76202C -1.49535e-06 6.71302 1.49316e-06 6.66402 0.0490011 6.61502C 0.0980007 6.61502 0.147002 6.56602 0.196001 6.56602C 0.245001 6.56602 0.293995 6.51702 0.342994 6.46802C 0.391994 6.41902 0.391997 6.32102 0.391997 6.22302L 0.391997 0.784002C 0.391997 0.686002 0.391994 0.588002 0.342994 0.539002C 0.293995 0.490001 0.245001 0.441003 0.196001 0.441003C 0.147002 0.441003 0.0980007 0.392 0.0490011 0.392C 1.49316e-06 0.392 -1.49535e-06 0.343002 -1.49535e-06 0.245001L -1.49535e-06 7.47683e-07L 2.30298 7.47683e-07C 2.98897 7.47683e-07 3.52797 0.147002 3.91997 0.441003C 4.31196 0.735004 4.50796 1.176 4.50796 1.76401C 4.50796 1.96001 4.45896 2.20501 4.40996 2.40101C 4.36096 2.59701 4.26297 2.79301 4.11597 2.94001C 3.96897 3.08701 3.77297 3.23401 3.57697 3.33201C 3.33197 3.43001 3.08697 3.47901 2.79297 3.47901C 2.93997 3.52801 3.08697 3.57701 3.18497 3.67501C 3.28297 3.77301 3.38097 3.92001 3.47897 4.06701L 4.60596 6.27202C 4.65496 6.37002 4.70396 6.46802 4.80196 6.51702C 4.89996 6.56602 4.94896 6.56602 4.99796 6.61502C 5.04696 6.61502 5.09596 6.66402 5.14496 6.66402C 5.19396 6.66402 5.19396 6.71302 5.19396 6.81102L 5.19396 7.10502L 3.67497 7.10502L 3.67497 7.05602ZM 1.61699 3.18501L 1.95998 3.18501C 2.49898 3.18501 2.84197 3.08701 3.03797 2.84201C 3.23397 2.59701 3.33197 2.25401 3.33197 1.813C 3.33197 1.372 3.23397 1.029 3.03797 0.784002C 2.84197 0.539002 2.44998 0.441003 1.95998 0.441003L 1.61699 0.441003L 1.61699 3.18501Z" transform="translate(70.7063 31.4092)" fill="white"></path>
</g>
<g id="Vector_11">
<path d="M 3.28297 7.30102L 3.28297 7.00702C 3.28297 6.95802 3.28297 6.90902 3.33197 6.86002C 3.38097 6.86002 3.42997 6.81102 3.47897 6.81102C 3.52797 6.81102 3.57697 6.81102 3.62597 6.76202C 3.67497 6.76202 3.67497 6.71302 3.67497 6.61502C 3.67497 6.56602 3.67497 6.46802 3.62597 6.37002C 3.57697 6.27202 3.57697 6.12502 3.52797 5.97802C 3.47897 5.83102 3.42997 5.68402 3.38097 5.53701C 3.33197 5.39001 3.28297 5.24302 3.28297 5.09602L 1.46999 5.09602C 1.37199 5.39002 1.32299 5.63502 1.27399 5.88002C 1.22499 6.12502 1.17599 6.32102 1.17599 6.46802C 1.17599 6.56602 1.17599 6.61502 1.22499 6.66402C 1.27399 6.71302 1.32299 6.71302 1.37199 6.71302C 1.42099 6.71302 1.46999 6.76202 1.51899 6.76202C 1.56799 6.76202 1.56799 6.81102 1.56799 6.90902L 1.56799 7.20302L 2.9907e-06 7.20302L 2.9907e-06 6.90902C 2.9907e-06 6.86002 -1.49681e-06 6.81102 0.0489981 6.76202C 0.0979977 6.76202 0.146999 6.71302 0.195998 6.71302C 0.244998 6.71302 0.293999 6.66402 0.342999 6.61502C 0.391998 6.56602 0.440999 6.51702 0.489999 6.41902L 2.05798 0.882001C 2.05798 0.784001 2.00899 0.686001 1.95999 0.588001C 1.91099 0.490001 1.91098 0.392 1.91098 0.343C 1.91098 0.294 1.95998 0.245002 2.10698 0.196002C 2.35198 0.0980018 2.54798 0.0490001 2.59698 0.0490001C 2.69497 0.0490001 2.74398 7.47683e-07 2.74398 7.47683e-07C 2.79298 7.47683e-07 2.84197 0 2.84197 0.0490001C 2.84197 0.0980003 2.89098 0.0979988 2.89098 0.146999L 4.70396 6.37002C 4.75296 6.46802 4.80196 6.56602 4.85096 6.61502C 4.89996 6.66402 4.94896 6.71302 4.99796 6.71302C 5.04696 6.71302 5.09596 6.76202 5.14496 6.76202C 5.19396 6.76202 5.19395 6.81102 5.19395 6.90902L 5.19395 7.20302L 3.28297 7.20302L 3.28297 7.30102ZM 3.18498 4.65501L 2.44998 1.76401L 1.71499 4.65501L 3.18498 4.65501Z" transform="translate(78.2524 31.1641)" fill="white"></path>
</g>
<g id="Vector_12">
<path d="M 4.70396 0.637001C 4.65496 0.735002 4.55696 0.833001 4.45896 0.931001C 4.36097 1.029 4.26296 1.127 4.16496 1.22501C 4.06697 1.32301 3.96897 1.372 3.82197 1.421C 3.67497 1.47 3.57697 1.51901 3.38098 1.51901C 3.18498 1.51901 2.98898 1.47 2.84198 1.421C 2.69498 1.372 2.49898 1.274 2.35198 1.176C 2.20498 1.078 2.00898 1.029 1.81298 0.931001C 1.61698 0.882001 1.42099 0.833003 1.17599 0.833003C 0.930995 0.833003 0.783994 0.882003 0.636995 1.078C 0.489996 1.225 0.391994 1.372 0.342994 1.568L -1.49535e-06 0.931001C 0.0489981 0.833001 0.0980022 0.735002 0.196001 0.637001C 0.294001 0.539001 0.343 0.441001 0.440999 0.343001C 0.538999 0.245001 0.636996 0.196 0.783995 0.147C 0.930994 0.0979995 1.07799 0.0490009 1.22499 0.0490009C 1.42099 0.0490009 1.61698 0.0979995 1.81298 0.147C 2.00898 0.196 2.20498 0.294 2.40098 0.392C 2.59698 0.490001 2.74398 0.539001 2.89098 0.637001C 3.03798 0.686001 3.18498 0.735004 3.38098 0.735004C 3.57697 0.735004 3.77297 0.686004 3.87097 0.490003C 4.01797 0.343003 4.11596 0.196002 4.26296 1.49537e-06L 4.70396 0.637001Z" transform="translate(86.6313 35.28)" fill="white"></path>
</g>
</g>
</g>
</svg>